# xmcd
#
# Track frame offsets: 
#        150
#        14965
#        26620
#        43025
#        57185
#        73892
#        85837
#        101345
#        116307
#        128832
#        141412
#        154445
#
# Disc length: 2242 seconds
#
# Revision: 15
# Processed by: cddbd v1.5.2PL0 Copyright (c) Steve Scherf et al.
# Submitted via: ExactAudioCopy v1.0b3
#
DISCID=aa08c00c
DTITLE=The Rolling Stones - Flowers (紙ジャケット仕様) UICY-93025
DYEAR=2006
DGENRE=Rock
TTITLE0=Ruby Tuesday
TTITLE1=Have You Seen Your Mother, Baby, Standing In The Shadow?
TTITLE2=Let's Spend The Night Together
TTITLE3=Lady Jane
TTITLE4=Out Of Time
TTITLE5=My Girl
TTITLE6=Backstreet Girl
TTITLE7=Please Go Home
TTITLE8=Mother's Little Helper
TTITLE9=Take It Or Leave It
TTITLE10=Ride On, Baby
TTITLE11=Sittin' On A Fence
EXTD=All songs arranged by the Rolling Stones and written by Jagger/Ri
EXTD=chards except "My Girl" (track 6) written by Robinson/White.\nMic
EXTD=k Jagger: vocals, guitar, harmonica, keyboards\nKeith Richards, B
EXTD=rian Jones: guitar, keyboards, vocals\nBill Wyman: bass, synthesi
EXTD=zer, keyboards, vocals\nCharlie Watts: drum
EXTT0=
EXTT1=
EXTT2=
EXTT3=
EXTT4=
EXTT5=
EXTT6=
EXTT7=
EXTT8=
EXTT9=
EXTT10=
EXTT11=
PLAYORDER=
